<svg width="163" height="46" viewBox="0 0 163 46" fill="none" xmlns="http://www.w3.org/2000/svg">
<path d="M0 0H163L137.449 32H0V0Z" fill="#FFD34E"/>
<path d="M0 32H14V45.5L0 32Z" fill="#E8B945"/>
<path d="M46.7031 22H44.4453V13.2969L41.75 14.1328V12.2969L46.4609 10.6094H46.7031V22ZM58.0625 17.2969C58.0625 18.8698 57.737 20.0729 57.0859 20.9062C56.4349 21.7396 55.4818 22.1562 54.2266 22.1562C52.987 22.1562 52.0391 21.7474 51.3828 20.9297C50.7266 20.112 50.3906 18.9401 50.375 17.4141V15.3203C50.375 13.7318 50.7031 12.526 51.3594 11.7031C52.0208 10.8802 52.9714 10.4688 54.2109 10.4688C55.4505 10.4688 56.3984 10.8776 57.0547 11.6953C57.7109 12.5078 58.0469 13.6771 58.0625 15.2031V17.2969ZM55.8047 15C55.8047 14.0573 55.6745 13.3724 55.4141 12.9453C55.1589 12.513 54.7578 12.2969 54.2109 12.2969C53.6797 12.2969 53.2865 12.5026 53.0312 12.9141C52.7812 13.3203 52.6484 13.9583 52.6328 14.8281V17.5938C52.6328 18.5208 52.7578 19.2109 53.0078 19.6641C53.263 20.112 53.6693 20.3359 54.2266 20.3359C54.7786 20.3359 55.1771 20.1198 55.4219 19.6875C55.6667 19.2552 55.7943 18.5938 55.8047 17.7031V15ZM67.25 17.2969C67.25 18.8698 66.9245 20.0729 66.2734 20.9062C65.6224 21.7396 64.6693 22.1562 63.4141 22.1562C62.1745 22.1562 61.2266 21.7474 60.5703 20.9297C59.9141 20.112 59.5781 18.9401 59.5625 17.4141V15.3203C59.5625 13.7318 59.8906 12.526 60.5469 11.7031C61.2083 10.8802 62.1589 10.4688 63.3984 10.4688C64.638 10.4688 65.5859 10.8776 66.2422 11.6953C66.8984 12.5078 67.2344 13.6771 67.25 15.2031V17.2969ZM64.9922 15C64.9922 14.0573 64.862 13.3724 64.6016 12.9453C64.3464 12.513 63.9453 12.2969 63.3984 12.2969C62.8672 12.2969 62.474 12.5026 62.2188 12.9141C61.9688 13.3203 61.8359 13.9583 61.8203 14.8281V17.5938C61.8203 18.5208 61.9453 19.2109 62.1953 19.6641C62.4505 20.112 62.8568 20.3359 63.4141 20.3359C63.9661 20.3359 64.3646 20.1198 64.6094 19.6875C64.8542 19.2552 64.9818 18.5938 64.9922 17.7031V15ZM68.75 12.8125C68.75 12.1146 68.9766 11.5495 69.4297 11.1172C69.8828 10.6797 70.4766 10.4609 71.2109 10.4609C71.9557 10.4609 72.5547 10.6771 73.0078 11.1094C73.4609 11.5365 73.6875 12.1172 73.6875 12.8516V13.4141C73.6875 14.1172 73.4609 14.6823 73.0078 15.1094C72.5547 15.5365 71.9609 15.75 71.2266 15.75C70.487 15.75 69.888 15.5365 69.4297 15.1094C68.9766 14.6771 68.75 14.0964 68.75 13.3672V12.8125ZM70.25 13.4141C70.25 13.7266 70.3385 13.9792 70.5156 14.1719C70.6979 14.3594 70.9349 14.4531 71.2266 14.4531C71.5182 14.4531 71.75 14.3568 71.9219 14.1641C72.0938 13.9714 72.1797 13.7135 72.1797 13.3906V12.8125C72.1797 12.5 72.0938 12.2474 71.9219 12.0547C71.75 11.862 71.513 11.7656 71.2109 11.7656C70.9245 11.7656 70.6927 11.862 70.5156 12.0547C70.3385 12.2422 70.25 12.5052 70.25 12.8438V13.4141ZM74.1875 19.2109C74.1875 18.5078 74.4167 17.9427 74.875 17.5156C75.3333 17.0833 75.9271 16.8672 76.6562 16.8672C77.3958 16.8672 77.9922 17.0807 78.4453 17.5078C78.9036 17.9297 79.1328 18.513 79.1328 19.2578V19.8203C79.1328 20.5182 78.9089 21.0833 78.4609 21.5156C78.013 21.9427 77.4167 22.1562 76.6719 22.1562C75.9219 22.1562 75.3203 21.9401 74.8672 21.5078C74.4141 21.0755 74.1875 20.5026 74.1875 19.7891V19.2109ZM75.6875 19.8203C75.6875 20.1068 75.7812 20.3516 75.9688 20.5547C76.1562 20.7578 76.3906 20.8594 76.6719 20.8594C77.3073 20.8594 77.625 20.5078 77.625 19.8047V19.2109C77.625 18.8984 77.5365 18.6484 77.3594 18.4609C77.1823 18.2682 76.9479 18.1719 76.6562 18.1719C76.3646 18.1719 76.1302 18.2682 75.9531 18.4609C75.776 18.6484 75.6875 18.9062 75.6875 19.2344V19.8203ZM71.6719 21.1484L70.5703 20.5547L76.125 11.6641L77.2266 12.2578L71.6719 21.1484ZM84.8203 22V10.625H88.3203C89.3203 10.625 90.2135 10.8516 91 11.3047C91.7917 11.7526 92.4089 12.3932 92.8516 13.2266C93.2943 14.0547 93.5156 14.9974 93.5156 16.0547V16.5781C93.5156 17.6354 93.2969 18.5755 92.8594 19.3984C92.4271 20.2214 91.8151 20.8594 91.0234 21.3125C90.2318 21.7656 89.3385 21.9948 88.3438 22H84.8203ZM87.1641 12.5234V20.1172H88.2969C89.2135 20.1172 89.9141 19.8177 90.3984 19.2188C90.8828 18.6198 91.1302 17.763 91.1406 16.6484V16.0469C91.1406 14.8906 90.901 14.0156 90.4219 13.4219C89.9427 12.8229 89.2422 12.5234 88.3203 12.5234H87.1641ZM97.7188 22H95.375V10.625H97.7188V22ZM103.602 15.75L105.969 10.625H108.531L104.797 17.875V22H102.414V17.875L98.6797 10.625H101.25L103.602 15.75Z" fill="#471E67"/>
</svg>
